<?xml version="1.0" encoding="utf-8"?>
<?xml-stylesheet type="text/xsl" href="rss1.xsl"?>
<rss version="2.0" xmlns:atom="http://www.w3.org/2005/Atom" xmlns:content="http://purl.org/rss/1.0/modules/content/" xmlns:dc="http://purl.org/dc/elements/1.1/" xmlns:media="http://search.yahoo.com/mrss/">
<channel>
 <title>Getty</title>
 <link>http://www.gettyimg.com/</link>
 <atom:link href="http://www.gettyimg.com/" rel="self" type="application/rss+xml" />

 
                <item>
                <title><![CDATA[【Music Videos】Céline Dion - My Heart Will Go On (25th Anniversary 4K Remaster) [4K HEVC 10-bit | DTS-HD MA 5.1 | DD+ Dolby Atmos]]]></title>
                <link><![CDATA[https://sharemania.us/threads/c%C3%A9line-dion-my-heart-will-go-on-25th-anniversary-4k-remaster-4k-hevc-10-bit-dts-hd-ma-5-1-dd-dolby-atmos.226810/]]></link>
                <description><![CDATA[<article>
<blockquote class="messageText SelectQuoteContainer ugc baseHtml">
<b><b><img src="https://images2.imgbox.com/a5/ee/HKUtD8ED_o.jpg" class="bbCodeImage LbImage" alt="[​IMG]" data-url="https://images2.imgbox.com/a5/ee/HKUtD8ED_o.jpg" style=""> <br>
<br>
Genre: <span style="color: rgb(0, 89, 179)">Pop, Stage &amp; Screen</span><br>
Style: <span style="color: rgb(0, 89, 179)">Ballad, Score</span><br>
Year: <span style="color: rgb(0, 89, 179)">1997 (4K Remaster: 2023)</span><br>
Video Source: <span style="color: rgb(0, 89, 179)">YouTube, 2160p, thanks Miguel Aching</span><br>
Audio Source: <span style="color: rgb(0, 89, 179)">DVDA MLP 96/24 5.1 &amp; Apple Music, thanks Moi &amp; SonMaxime</span></b></b><br>
<br>
"<b>My Heart Will Go On</b>" is a song recorded by Canadian singer Celine Dion. The song serves as the main soundtrack to James Cameron's blockbuster film Titanic, based on an account of the transatlantic ocean liner of the same name which sank in 1912 after colliding with an iceberg in the North Atlantic Ocean. The song's music was composed by James Horner, its lyrics were written by Will Jennings, while the production was handled by Walter Afanasieff, Horner and Simon Franglen.<br>
<br>
When Jennings writes song for movies, he often looks at a script or sees a rough cut of the film. This wasn't the case with this song, as he drew inspiration from Horner's narrative. Says Jennngs, <i>"I wrote everything from the point of view of a person of a great age looking back so many years. It was the love story that made the film, of course. It was magnificently done with special effects, the actors were good. But the love story was what it was."<br>
</i><br>
"My Heart Will Go On" won the 1998 Grammy Awards for Record Of The Year, Best Female Pop Vocal Performance, Song Of The Year and Best Song for a Motion Picture.<br>
<br>
To Celebrate the 25th anniversary of Celine Dion’s biggest hit of all time, this performance focused music video has been reimagined, featuring remastered footage in stunning clarity. Newly transferred from the original 35mm film reels and assembled in a brand new 4K edit. This version is modified by Miguel Aching who added 4K parts of the movie, like the original Music video.<br>
<br>
<a href="https://sharemania.us/threads/c%C3%A9line-dion-my-heart-will-go-on-25th-anniversary-alternate-music-video-4k-hevc-10-bit-dts-hd-ma-5-1-dd-dolby-atmos.226807/" class="internalLink"><b>You can download the alternate version here.</b></a><br>
<br>
<b>Release Info:</b><br>
The video track is downloaded from YouTube and encoded to HEVC 10-bit. This version is modified to look more like the original music video.<br>
The DTS-HD MA track is lossless, ripped from a SACD-LAB Demo DVDA (MLP 96/24 5.1).<br>
Synced with Adobe Audition. Encoded to DTS-HD MA with DTS-HD Master Audio Suite.<br>
The Dolby Atmos track is lossy (E-AC3), synced to the video track by muxing.<br>
The timed lyrics are synced &amp; edited. Enable the subtitles to see the lyrics.<br>
<br>
<div class="ToggleTriggerAnchor bbCodeSpoilerContainer">
<button type="button" class="button bbCodeSpoilerButton ToggleTrigger Tooltip JsOnly" data-target="> .SpoilerTarget"><span>Spoiler: <span class="SpoilerTitle">Media Info</span></span></button>
<div class="SpoilerTarget bbCodeSpoilerText">
<div class="bbCodeBlock bbCodeCode">
<div class="type">Code:</div>
<pre>General
Unique ID                      : 79224944492520701729816815167013929039 (0x3B9A2B56DAF2E3EC46F8CBB444E8404F)
Complete name                  : Céline Dion - My Heart Will Go On (25th Anniversary Remaster).mkv
Format                         : Matroska
Format version                 : Version 4 / Version 2
File size                      : 596 MiB
Duration                       : 4 min 40 s
Overall bit rate               : 17.8 Mb/s
Frame rate                     : 23.976 FPS
Encoded date                   : 2023-08-22 16:58:58 UTC
Writing application            : mkvmerge v76.0 ('Celebration') 64-bit
Writing library                : libebml v1.4.4 + libmatroska v1.7.1

Video
ID                             : 1
Format                         : HEVC
Format/Info                    : High Efficiency Video Coding
Format profile                 : Main 10@L5@Main
Codec ID                       : V_MPEGH/ISO/HEVC
Duration                       : 4 min 40 s
Bit rate                       : 7 781 kb/s
Width                          : 3 840 pixels
Height                         : 2 160 pixels
Display aspect ratio           : 16:9
Frame rate mode                : Constant
Frame rate                     : 23.976 (24000/1001) FPS
Color space                    : YUV
Chroma subsampling             : 4:2:0
Bit depth                      : 10 bits
Bits/(Pixel*Frame)             : 0.039
Stream size                    : 260 MiB (44%)
Writing library                : x265 3.5+1-f0c1022b6:[Windows][GCC 10.2.0][64 bit] 10bit
Encoding settings              : cpuid=1111039 / frame-threads=6 / numa-pools=32 / wpp / no-pmode / no-pme / no-psnr / no-ssim / log-level=2 / input-csp=1 / input-res=3840x2160 / interlace=0 / total-frames=0 / level-idc=0 / high-tier=1 / uhd-bd=0 / ref=4 / no-allow-non-conformance / no-repeat-headers / annexb / no-aud / no-eob / no-eos / no-hrd / info / hash=0 / no-temporal-layers / open-gop / min-keyint=24 / keyint=240 / gop-lookahead=0 / bframes=4 / b-adapt=2 / b-pyramid / bframe-bias=0 / rc-lookahead=25 / lookahead-slices=4 / scenecut=40 / no-hist-scenecut / radl=0 / no-splice / no-intra-refresh / ctu=64 / min-cu-size=8 / rect / no-amp / max-tu-size=32 / tu-inter-depth=1 / tu-intra-depth=1 / limit-tu=0 / rdoq-level=2 / dynamic-rd=0.00 / no-ssim-rd / signhide / no-tskip / nr-intra=0 / nr-inter=0 / no-constrained-intra / strong-intra-smoothing / max-merge=3 / limit-refs=3 / limit-modes / me=3 / subme=3 / merange=57 / temporal-mvp / no-frame-dup / no-hme / weightp / no-weightb / no-analyze-src-pics / deblock=0:0 / sao / no-sao-non-deblock / rd=4 / selective-sao=4 / no-early-skip / rskip / no-fast-intra / no-tskip-fast / no-cu-lossless / no-b-intra / no-splitrd-skip / rdpenalty=0 / psy-rd=2.00 / psy-rdoq=1.00 / no-rd-refine / no-lossless / cbqpoffs=0 / crqpoffs=0 / rc=crf / crf=20.0 / qcomp=0.60 / qpstep=4 / stats-write=0 / stats-read=0 / ipratio=1.40 / pbratio=1.30 / aq-mode=2 / aq-strength=1.00 / cutree / zone-count=0 / no-strict-cbr / qg-size=32 / no-rc-grain / qpmax=69 / qpmin=0 / no-const-vbv / sar=1 / overscan=0 / videoformat=5 / range=0 / colorprim=1 / transfer=1 / colormatrix=1 / chromaloc=0 / display-window=0 / cll=0,0 / min-luma=0 / max-luma=1023 / log2-max-poc-lsb=8 / vui-timing-info / vui-hrd-info / slices=1 / no-opt-qp-pps / no-opt-ref-list-length-pps / no-multi-pass-opt-rps / scenecut-bias=0.05 / no-opt-cu-delta-qp / no-aq-motion / no-sbrc / no-hdr10 / no-hdr10-opt / no-dhdr10-opt / no-idr-recovery-sei / analysis-reuse-level=0 / analysis-save-reuse-level=0 / analysis-load-reuse-level=0 / scale-factor=0 / refine-intra=0 / refine-inter=0 / refine-mv=1 / refine-ctu-distortion=0 / no-limit-sao / ctu-info=0 / no-lowpass-dct / refine-analysis-type=0 / copy-pic=1 / max-ausize-factor=1.0 / no-dynamic-refine / no-single-sei / no-hevc-aq / no-svt / no-field / qp-adaptation-range=1.00 / scenecut-aware-qp=0conformance-window-offsets / right=0 / bottom=0 / decoder-max-rate=0 / no-vbv-live-multi-pass / no-mcstf
Default                        : Yes
Forced                         : No
Color range                    : Limited
Color primaries                : BT.709
Transfer characteristics       : BT.709
Matrix coefficients            : BT.709

Audio #1
ID                             : 2
Format                         : DTS x96 XLL
Format/Info                    : Digital Theater Systems
Commercial name                : DTS-HD Master Audio
Codec ID                       : A_DTS
Duration                       : 4 min 40 s
Bit rate mode                  : Variable / Constant / Constant
Bit rate                       : 9 147 kb/s / 1 509 kb/s / 1 509 kb/s
Channel(s)                     : 6 channels
Channel layout                 : C L R Ls Rs LFE
Sampling rate                  : 96.0 kHz / 96.0 kHz / 48.0 kHz
Frame rate                     : 93.750 FPS (1024 SPF) / 93.750 FPS (1024 SPF) / 93.750 FPS (512 SPF)
Bit depth                      : 24 bits
Compression mode               : Lossless / Lossy / Lossy
Delay relative to video        : 3 ms
Stream size                    : 306 MiB (51%)
Title                          : Lossless 5.1
Language                       : English
Default                        : Yes
Forced                         : No

Audio #2
ID                             : 3
Format                         : E-AC-3 JOC
Format/Info                    : Enhanced AC-3 with Joint Object Coding
Commercial name                : Dolby Digital Plus with Dolby Atmos
Codec ID                       : A_EAC3
Duration                       : 4 min 40 s
Bit rate mode                  : Constant
Bit rate                       : 768 kb/s
Channel(s)                     : 6 channels
Channel layout                 : L R C LFE Ls Rs
Sampling rate                  : 48.0 kHz
Frame rate                     : 31.250 FPS (1536 SPF)
Compression mode               : Lossy
Delay relative to video        : 500 ms
Stream size                    : 25.6 MiB (4%)
Title                          : Dolby Digital Plus with Dolby Atmos
Language                       : English
Service kind                   : Complete Main
Default                        : No
Forced                         : No
Complexity index               : 16
Number of dynamic objects      : 15
Bed channel count              : 1 channel
Bed channel configuration      : LFE

Audio #3
ID                             : 4
Format                         : AAC LC
Format/Info                    : Advanced Audio Codec Low Complexity
Codec ID                       : A_AAC-2
Duration                       : 4 min 40 s
Bit rate                       : 128 kb/s
Channel(s)                     : 2 channels
Channel layout                 : L R
Sampling rate                  : 44.1 kHz
Frame rate                     : 43.066 FPS (1024 SPF)
Compression mode               : Lossy
Stream size                    : 4.28 MiB (1%)
Language                       : English
Default                        : No
Forced                         : No

Text
ID                             : 5
Format                         : UTF-8
Codec ID                       : S_TEXT/UTF8
Codec ID/Info                  : UTF-8 Plain Text
Duration                       : 3 min 48 s
Bit rate                       : 26 b/s
Frame rate                     : 0.087 FPS
Count of elements              : 20
Stream size                    : 767 Bytes (0%)
Title                          : Lyrics
Language                       : English
Default                        : No
Forced                         : No
</pre>
</div></div>
</div><br>
<div class="bbCodeBlock bbCodeVfcHH HiddenContent">
<div class="attribution type">Hidden Content:</div>
<blockquote>You must reply before you can see the hidden data contained here.</blockquote>
</div>
<div class="messageTextEndMarker">&nbsp;</div>
</blockquote>
</article>]]></description>
                <author><![CDATA[ADHDerby]]></author>
                </item>

                
                <item>
                <title><![CDATA[【PRORES SD】Britney Spears - Born To Make You Happy (480p)]]></title>
                <link><![CDATA[https://sharemania.us/threads/britney-spears-born-to-make-you-happy-480p.226809/]]></link>
                <description><![CDATA[<article>
<blockquote class="messageText SelectQuoteContainer ugc baseHtml">
<div style="text-align: center"><a href="https://ibb.co/YkrkpKp" target="_blank" class="externalLink" rel="nofollow"><img src="https://i.ibb.co/5878BzB/Britney-Spears-Born-To-Make-You-Happy-DV-mov-thumbs.jpg" class="bbCodeImage LbImage" alt="[​IMG]" data-url="https://i.ibb.co/5878BzB/Britney-Spears-Born-To-Make-You-Happy-DV-mov-thumbs.jpg"></a><br>
<br>
<br>
<div class="bbCodeBlock bbCodeVfcHH HiddenContent">
<div class="attribution type">Hidden Content:</div>
<blockquote>You must either reply or click 'Like' to see the hidden information contained here.</blockquote>
</div></div>
<div class="messageTextEndMarker">&nbsp;</div>
</blockquote>
</article>]]></description>
                <author><![CDATA[vjrhymes]]></author>
                </item>

                
                <item>
                <title><![CDATA[【Albums (lossy)】Dolby AC-4 - Taylor Swift - Fearless (Taylor's Version) - [AC-4 - IMS | 16bits/48kHz] (Dolby Inmersive Stereo)]]></title>
                <link><![CDATA[https://sharemania.us/threads/taylor-swift-fearless-taylors-version-ac-4-ims-16bits-48khz-dolby-inmersive-stereo.226808/]]></link>
                <description><![CDATA[<article>
<blockquote class="messageText SelectQuoteContainer ugc baseHtml">
<div style="text-align: center"><img src="https://i.postimg.cc/NjMFgGzL/fearless-taylor-s-version-animated-artwork.gif" class="bbCodeImage LbImage" alt="[​IMG]" data-url="https://i.postimg.cc/NjMFgGzL/fearless-taylor-s-version-animated-artwork.gif" style=""><br>
<br>
<span style="font-family: 'Arial'"><span style="font-size: 15px"><span style="color: #e8ae41"><b> Enjoy!</b></span></span><br>
<span style="color: #e8ae41"><span style="font-size: 15px"><b>Animated Artwork Included!</b><br>
<b>(2160x2160)</b></span></span><br>
</span><br>
<br>
<div class="ToggleTriggerAnchor bbCodeSpoilerContainer">
<button type="button" class="button bbCodeSpoilerButton ToggleTrigger Tooltip JsOnly" data-target="> .SpoilerTarget"><span>Spoiler: <span class="SpoilerTitle">Copyright</span></span></button>
<div class="SpoilerTarget bbCodeSpoilerText">℗© 2021 Taylor Swift</div>
</div><br>
<div class="bbCodeBlock bbCodeVfcHH HiddenContent">
<div class="attribution type">Hidden Content:</div>
<blockquote>You must reply before you can see the hidden data contained here.</blockquote>
</div></div>
<div class="messageTextEndMarker">&nbsp;</div>
</blockquote>
</article>]]></description>
                <author><![CDATA[marcomdz05]]></author>
                </item>

                </channel></rss>